<svg width="21" height="20" viewBox="0 0 21 20" fill="none" xmlns="http://www.w3.org/2000/svg">
<path d="M6.75 5.625C6.58424 5.625 6.42527 5.55915 6.30806 5.44194C6.19085 5.32473 6.125 5.16576 6.125 5V2.5C6.125 2.33424 6.19085 2.17527 6.30806 2.05806C6.42527 1.94085 6.58424 1.875 6.75 1.875C6.91576 1.875 7.07473 1.94085 7.19194 2.05806C7.30915 2.17527 7.375 2.33424 7.375 2.5V5C7.375 5.16576 7.30915 5.32473 7.19194 5.44194C7.07473 5.55915 6.91576 5.625 6.75 5.625ZM14.25 5.625C14.0842 5.625 13.9253 5.55915 13.8081 5.44194C13.6908 5.32473 13.625 5.16576 13.625 5V2.5C13.625 2.33424 13.6908 2.17527 13.8081 2.05806C13.9253 1.94085 14.0842 1.875 14.25 1.875C14.4158 1.875 14.5747 1.94085 14.6919 2.05806C14.8092 2.17527 14.875 2.33424 14.875 2.5V5C14.875 5.16576 14.8092 5.32473 14.6919 5.44194C14.5747 5.55915 14.4158 5.625 14.25 5.625Z" fill="#9A1C20"/>
<path d="M16.75 18.125H4.25C3.21625 18.125 2.375 17.2837 2.375 16.25V5C2.375 3.96625 3.21625 3.125 4.25 3.125H16.75C17.7837 3.125 18.625 3.96625 18.625 5V16.25C18.625 17.2837 17.7837 18.125 16.75 18.125ZM4.25 4.375C4.08424 4.375 3.92527 4.44085 3.80806 4.55806C3.69085 4.67527 3.625 4.83424 3.625 5V16.25C3.625 16.4158 3.69085 16.5747 3.80806 16.6919C3.92527 16.8092 4.08424 16.875 4.25 16.875H16.75C16.9158 16.875 17.0747 16.8092 17.1919 16.6919C17.3092 16.5747 17.375 16.4158 17.375 16.25V5C17.375 4.83424 17.3092 4.67527 17.1919 4.55806C17.0747 4.44085 16.9158 4.375 16.75 4.375H4.25Z" fill="#9A1C20"/>
<path d="M18 8.125H3C2.83424 8.125 2.67527 8.05915 2.55806 7.94194C2.44085 7.82473 2.375 7.66576 2.375 7.5C2.375 7.33424 2.44085 7.17527 2.55806 7.05806C2.67527 6.94085 2.83424 6.875 3 6.875H18C18.1658 6.875 18.3247 6.94085 18.4419 7.05806C18.5592 7.17527 18.625 7.33424 18.625 7.5C18.625 7.66576 18.5592 7.82473 18.4419 7.94194C18.3247 8.05915 18.1658 8.125 18 8.125ZM7.375 9.375H8.625V10.625H7.375V9.375ZM9.875 9.375H11.125V10.625H9.875V9.375ZM12.375 9.375H13.625V10.625H12.375V9.375ZM14.875 9.375H16.125V10.625H14.875V9.375ZM4.875 11.875H6.125V13.125H4.875V11.875ZM7.375 11.875H8.625V13.125H7.375V11.875ZM9.875 11.875H11.125V13.125H9.875V11.875ZM12.375 11.875H13.625V13.125H12.375V11.875ZM14.875 11.875H16.125V13.125H14.875V11.875ZM4.875 14.375H6.125V15.625H4.875V14.375ZM7.375 14.375H8.625V15.625H7.375V14.375ZM9.875 14.375H11.125V15.625H9.875V14.375Z" fill="#9A1C20"/>
</svg>
