<svg width="21" height="20" viewBox="0 0 21 20" fill="none" xmlns="http://www.w3.org/2000/svg">
<g clip-path="url(#clip0_140_1478)">
<path d="M10.4925 -0.00292969C7.3925 -0.00292969 4.8675 2.52207 4.8675 5.62207C4.86685 5.68909 4.87697 5.75577 4.8975 5.81957C4.95 7.79332 5.805 9.51957 6.81 11.1196C7.85 12.7733 9.05375 14.3233 9.82625 15.9058C9.87704 16.0101 9.95584 16.0982 10.0538 16.1602C10.1518 16.2222 10.2652 16.2558 10.3811 16.2571C10.4971 16.2584 10.6112 16.2274 10.7105 16.1675C10.8099 16.1077 10.8906 16.0214 10.9437 15.9183C11.7562 14.3371 13.0212 12.7846 14.1137 11.1321C15.205 9.47957 16.1375 7.69457 16.1375 5.63207C16.1386 5.55265 16.1246 5.47375 16.0962 5.39957C15.975 2.40582 13.5162 -0.00292969 10.4925 -0.00292969ZM10.4925 1.24707C12.9175 1.24707 14.8675 3.19832 14.8675 5.62207C14.8668 5.66697 14.871 5.71182 14.88 5.75582C14.8425 7.39082 14.0875 8.90582 13.0712 10.4433C12.2112 11.7446 11.2387 13.0883 10.4 14.4846C9.60375 13.0946 8.68625 11.7533 7.87 10.4558C6.87875 8.87707 6.1375 7.32457 6.1375 5.63082C6.13735 5.59435 6.134 5.55796 6.1275 5.52207C6.14977 4.37965 6.61963 3.29164 7.43597 2.49214C8.2523 1.69263 9.34987 1.24554 10.4925 1.24707ZM10.4925 3.74957C9.465 3.74957 8.6175 4.59707 8.6175 5.62457C8.6175 6.65207 9.465 7.49957 10.4925 7.49957C11.5212 7.49957 12.3675 6.65207 12.3675 5.62457C12.3675 4.59707 11.5212 3.74957 10.4925 3.74957ZM10.4925 4.99957C10.845 4.99957 11.1175 5.27207 11.1175 5.62457C11.1175 5.97707 10.845 6.24957 10.4925 6.24957C10.4101 6.25075 10.3283 6.23539 10.2519 6.2044C10.1756 6.1734 10.1062 6.12741 10.0479 6.06914C9.98966 6.01086 9.94367 5.9415 9.91267 5.86513C9.88168 5.78877 9.86632 5.70697 9.8675 5.62457C9.8675 5.27207 10.14 4.99957 10.4925 4.99957ZM15.605 11.5333C15.4594 11.5337 15.3184 11.5849 15.2065 11.6781C15.0946 11.7713 15.0188 11.9007 14.9921 12.0438C14.9654 12.187 14.9896 12.335 15.0604 12.4622C15.1312 12.5895 15.2443 12.688 15.38 12.7408C16.6262 13.2458 17.4275 13.9071 17.7725 14.5158C18.1187 15.1246 18.11 15.6508 17.6587 16.2983C16.7525 17.5933 13.8637 18.7408 10.5662 18.7546C7.2675 18.7671 4.33875 17.6508 3.38125 16.3521C2.9025 15.7021 2.87875 15.1733 3.2 14.5671C3.5225 13.9621 4.29375 13.2946 5.52 12.7796C5.59921 12.7504 5.67169 12.7054 5.73305 12.6474C5.79442 12.5895 5.8434 12.5197 5.87705 12.4422C5.91069 12.3648 5.9283 12.2814 5.92882 12.1969C5.92933 12.1125 5.91273 12.0289 5.88003 11.951C5.84732 11.8732 5.79919 11.8028 5.73853 11.7441C5.67787 11.6854 5.60594 11.6395 5.52709 11.6094C5.44824 11.5792 5.36409 11.5654 5.27973 11.5686C5.19537 11.5719 5.11254 11.5922 5.03625 11.6283C3.63625 12.2158 2.615 13.0058 2.09625 13.9821C1.5775 14.9571 1.6675 16.1346 2.375 17.0946C3.79 19.0121 7.01375 20.0196 10.5737 20.0046C14.1325 19.9896 17.3262 18.9583 18.6838 17.0171C19.3625 16.0458 19.4088 14.8633 18.8587 13.8983C18.3112 12.9333 17.2675 12.1558 15.8487 11.5821C15.7717 11.5492 15.6888 11.5322 15.605 11.5321V11.5333Z" fill="#9A1C20"/>
</g>
<defs>
<clipPath id="clip0_140_1478">
<rect width="20" height="20" fill="white" transform="translate(0.5)"/>
</clipPath>
</defs>
</svg>
