<svg width="24" height="16" viewBox="0 0 24 16" fill="none" xmlns="http://www.w3.org/2000/svg">
<path d="M1 9C0.447716 9 2.81839e-07 8.55228 3.0598e-07 8C3.30121e-07 7.44771 0.447716 7 1 7L1 9ZM23 8L23.7071 7.29289C24.0976 7.68342 24.0976 8.31658 23.7071 8.70711L23 8ZM16.7071 15.7071C16.3166 16.0976 15.6834 16.0976 15.2929 15.7071C14.9024 15.3166 14.9024 14.6834 15.2929 14.2929L16.7071 15.7071ZM15.2929 1.70711C14.9024 1.31658 14.9024 0.683417 15.2929 0.292893C15.6834 -0.0976318 16.3166 -0.0976317 16.7071 0.292893L15.2929 1.70711ZM1 7L23 7L23 9L1 9L1 7ZM15.2929 14.2929L22.2929 7.29289L23.7071 8.70711L16.7071 15.7071L15.2929 14.2929ZM22.2929 8.70711L15.2929 1.70711L16.7071 0.292893L23.7071 7.29289L22.2929 8.70711Z" fill="white"/>
</svg>
