<svg width="41" height="40" viewBox="0 0 41 40" fill="none" xmlns="http://www.w3.org/2000/svg">
<circle opacity="0.3" cx="20.5" cy="20" r="20" fill="white"/>
<circle cx="20.5" cy="20" r="18" fill="white"/>
<path d="M16.75 15.625C16.5842 15.625 16.4253 15.5592 16.3081 15.4419C16.1908 15.3247 16.125 15.1658 16.125 15V12.5C16.125 12.3342 16.1908 12.1753 16.3081 12.0581C16.4253 11.9408 16.5842 11.875 16.75 11.875C16.9158 11.875 17.0747 11.9408 17.1919 12.0581C17.3092 12.1753 17.375 12.3342 17.375 12.5V15C17.375 15.1658 17.3092 15.3247 17.1919 15.4419C17.0747 15.5592 16.9158 15.625 16.75 15.625ZM24.25 15.625C24.0842 15.625 23.9253 15.5592 23.8081 15.4419C23.6908 15.3247 23.625 15.1658 23.625 15V12.5C23.625 12.3342 23.6908 12.1753 23.8081 12.0581C23.9253 11.9408 24.0842 11.875 24.25 11.875C24.4158 11.875 24.5747 11.9408 24.6919 12.0581C24.8092 12.1753 24.875 12.3342 24.875 12.5V15C24.875 15.1658 24.8092 15.3247 24.6919 15.4419C24.5747 15.5592 24.4158 15.625 24.25 15.625Z" fill="#252123"/>
<path d="M26.75 28.125H14.25C13.2162 28.125 12.375 27.2838 12.375 26.25V15C12.375 13.9662 13.2162 13.125 14.25 13.125H26.75C27.7838 13.125 28.625 13.9662 28.625 15V26.25C28.625 27.2838 27.7838 28.125 26.75 28.125ZM14.25 14.375C14.0842 14.375 13.9253 14.4408 13.8081 14.5581C13.6908 14.6753 13.625 14.8342 13.625 15V26.25C13.625 26.4158 13.6908 26.5747 13.8081 26.6919C13.9253 26.8092 14.0842 26.875 14.25 26.875H26.75C26.9158 26.875 27.0747 26.8092 27.1919 26.6919C27.3092 26.5747 27.375 26.4158 27.375 26.25V15C27.375 14.8342 27.3092 14.6753 27.1919 14.5581C27.0747 14.4408 26.9158 14.375 26.75 14.375H14.25Z" fill="#252123"/>
<path d="M28 18.125H13C12.8342 18.125 12.6753 18.0592 12.5581 17.9419C12.4408 17.8247 12.375 17.6658 12.375 17.5C12.375 17.3342 12.4408 17.1753 12.5581 17.0581C12.6753 16.9408 12.8342 16.875 13 16.875H28C28.1658 16.875 28.3247 16.9408 28.4419 17.0581C28.5592 17.1753 28.625 17.3342 28.625 17.5C28.625 17.6658 28.5592 17.8247 28.4419 17.9419C28.3247 18.0592 28.1658 18.125 28 18.125ZM17.375 19.375H18.625V20.625H17.375V19.375ZM19.875 19.375H21.125V20.625H19.875V19.375ZM22.375 19.375H23.625V20.625H22.375V19.375ZM24.875 19.375H26.125V20.625H24.875V19.375ZM14.875 21.875H16.125V23.125H14.875V21.875ZM17.375 21.875H18.625V23.125H17.375V21.875ZM19.875 21.875H21.125V23.125H19.875V21.875ZM22.375 21.875H23.625V23.125H22.375V21.875ZM24.875 21.875H26.125V23.125H24.875V21.875ZM14.875 24.375H16.125V25.625H14.875V24.375ZM17.375 24.375H18.625V25.625H17.375V24.375ZM19.875 24.375H21.125V25.625H19.875V24.375Z" fill="#252123"/>
</svg>
